:version 1.10
:name ASF
:units
  mass 1
  length 1
  angle deg
:documentation
  ASF file generated by Kaydara
:root
  axis xyz
  order  tx ty tz rx ry rz
  position 0 0 0
  orientation 0 0 0
:bonedata
  begin
    id 1
    name SpineDummy
    direction 0.999998 -0.00179978 1.38929e-006
    length 3.60008
    axis 0 0 0 xyz
  end
  begin
    id 2
    name Spine
    direction 0.964365 0.262802 0.0305839
    length 8.13928
    axis 1.33928 -1.75354 15.2838 xyz
    dof rx ry rz
  end
  begin
    id 3
    name Spine1
    direction 0.811168 0.572065 0.12144
    length 7.14954
    axis 2.2224 -6.9761 35.2157 xyz
    dof rx ry rz
  end
  begin
    id 4
    name Neck
    direction 0 0 0
    length 0
    axis 2.2224 -6.9761 35.2157 xyz
    dof rx ry rz
  end
  begin
    id 5
    name HeadDummy
    direction 0.810939 0.572387 0.121455
    length 3.55534
    axis 2.2224 -6.9761 35.2157 xyz
  end
  begin
    id 6
    name Head
    direction 0.998226 -0.000232542 0.0595419
    length 7.35666
    axis -3.03688 -3.41352 -0.0133467 xyz
    dof rx ry rz
  end
  begin
    id 7
    name R_ClavicleDummy
    direction 0.531669 -0.194489 -0.824319
    length 2.49392
    axis 2.2224 -6.9761 35.2157 xyz
  end
  begin
    id 8
    name R_Clavicle
    direction -0.155119 0.0480802 -0.986725
    length 4.485
    axis -54.2764 80.6538 162.779 xyz
    dof rx ry rz
  end
  begin
    id 9
    name R_UpperArm
    direction -0.955567 0.200068 -0.216484
    length 10.1122
    axis -72.9943 12.5026 168.175 xyz
    dof rx ry rz
  end
  begin
    id 10
    name R_Forearm
    direction -0.61433 0.385743 0.688332
    length 9.39148
    axis -117.015 -43.4982 147.875 xyz
    dof rx ry rz
  end
  begin
    id 11
    name R_Hand
    direction -0.699429 0.0170333 0.714499
    length 3.66324
    axis -45.0303 -36.7097 175.478 xyz
    dof rx ry rz
  end
  begin
    id 12
    name L_ClavicleDummy
    direction 0.40287 -0.36502 0.839319
    length 2.49392
    axis 2.2224 -6.9761 35.2157 xyz
  end
  begin
    id 13
    name L_Clavicle
    direction -0.231271 -0.0726419 0.970174
    length 4.485
    axis 18.4357 -75.9711 -162.563 xyz
    dof rx ry rz
  end
  begin
    id 14
    name L_UpperArm
    direction -0.917494 0.144359 0.370629
    length 10.1122
    axis 56.0417 -21.7544 171.058 xyz
    dof rx ry rz
  end
  begin
    id 15
    name L_Forearm
    direction -0.496786 0.615074 -0.612281
    length 9.39148
    axis 89.8094 37.7546 128.927 xyz
    dof rx ry rz
  end
  begin
    id 16
    name L_Hand
    direction -0.409932 0.64962 -0.640274
    length 3.66324
    axis -0.424369 32.133 128.52 xyz
    dof rx ry rz
  end
  begin
    id 17
    name L_ThighDummy
    direction -1.84081e-006 1.87549e-006 1
    length 3.13049
    axis 0 0 0 xyz
  end
  begin
    id 18
    name L_Thigh
    direction -0.947739 0.307978 0.083308
    length 17.9961
    axis 173.219 -4.77873 161.998 xyz
    dof rx ry rz
  end
  begin
    id 19
    name L_Calf
    direction -0.728814 -0.684427 0.0197583
    length 13.3367
    axis 167.331 -1.13214 -136.799 xyz
    dof rx ry rz
  end
  begin
    id 20
    name L_Foot
    direction -0.9028 0.418719 0.0981191
    length 5.8674
    axis 163.436 11.5135 -155.37 xyz
    dof rx ry rz
  end
  begin
    id 21
    name L_Toe0
    direction -0.35341 0.886259 0.299411
    length 4.75286
    axis 169.316 -17.4222 111.74 xyz
    dof rx ry rz
  end
  begin
    id 22
    name R_ThighDummy
    direction 9.32778e-007 -8.82053e-007 -1
    length 3.13049
    axis 0 0 0 xyz
  end
  begin
    id 23
    name R_Thigh
    direction -0.925064 0.37528 -0.0585023
    length 17.9961
    axis -178.698 3.35385 157.919 xyz
    dof rx ry rz
  end
  begin
    id 24
    name R_Calf
    direction -0.68969 -0.718776 -0.0876886
    length 13.3367
    axis -160.504 5.03065 -133.817 xyz
    dof rx ry rz
  end
  begin
    id 25
    name R_Foot
    direction -0.857405 0.418858 -0.299022
    length 5.8674
    axis -161.328 4.38911 -154.413 xyz
    dof rx ry rz
  end
  begin
    id 26
    name R_Toe0
    direction -0.100745 0.952789 -0.286433
    length 4.75286
    axis 171.683 16.6445 96.0359 xyz
    dof rx ry rz
  end
:hierarchy
  begin
    root SpineDummy L_ThighDummy R_ThighDummy
    SpineDummy Spine
    Spine Spine1
    Spine1 Neck
    Neck HeadDummy R_ClavicleDummy L_ClavicleDummy
    HeadDummy Head
    R_ClavicleDummy R_Clavicle
    R_Clavicle R_UpperArm
    R_UpperArm R_Forearm
    R_Forearm R_Hand
    L_ClavicleDummy L_Clavicle
    L_Clavicle L_UpperArm
    L_UpperArm L_Forearm
    L_Forearm L_Hand
    L_ThighDummy L_Thigh
    L_Thigh L_Calf
    L_Calf L_Foot
    L_Foot L_Toe0
    R_ThighDummy R_Thigh
    R_Thigh R_Calf
    R_Calf R_Foot
    R_Foot R_Toe0
  end

:SAMPLES-PER-SECOND 30
:FULLY-SPECIFIED
:DEGREES
500
root  -16.7523 11.4114 -12.9117 86.7667 59.3947 80.6538
Spine  18.1275 10.6627 23.2881
Spine1  15.9123 -37.4187 -4.86975
Neck  3.97569e-016 0 -2.38542e-015
Head  22.5325 6.22131 41.5753
R_Clavicle  0.636181 9.6627 2.9292
R_UpperArm  44.0541 27.9565 -12.2258
R_Forearm  10.5466 -18.5428 16.1656
R_Hand  0.15905 7.14812 -9.30697
L_Clavicle  -0.558213 22.8064 1.52975
L_UpperArm  -42.4948 44.8916 55.8353
L_Forearm  -47.6461 -14.6713 -1.27456
L_Hand  45.0759 -51.559 -85.6504
L_Thigh  16.222 3.12568 20.7247
L_Calf  -9.19729 -1.57741 11.3584
L_Foot  4.26245 6.81159 9.66652
L_Toe0  0.505156 0.033635 -6.1361
R_Thigh  52.7646 -4.11736 -10.8161
R_Calf  53.6536 -17.6194 -79.3433
R_Foot  8.56963 18.33 40.8441
R_Toe0  0.794662 -0.179526 1.07415
501
root  -15.3801 11.447 -11.5266 92.5525 60.6775 94.0513
Spine  19.425 9.90311 23.4597
Spine1  17.2881 -40.2488 -4.84267
Neck  3.97569e-016 0 -2.38542e-015
Head  19.7656 5.7321 43.8538
R_Clavicle  0.689123 10.8051 3.08091
R_UpperArm  45.6602 26.3678 -7.12113
R_Forearm  12.4802 -11.7392 9.91451
R_Hand  0.0938393 7.39293 -10.031
L_Clavicle  -0.518762 22.5992 2.12765
L_UpperArm  -35.8476 47.0834 64.252
L_Forearm  -50.9736 -14.9409 -2.90273
L_Hand  39.6903 -45.423 -87.0159
L_Thigh  21.4386 7.32519 20.3025
L_Calf  -7.4425 0.0581286 -0.753555
L_Foot  3.98033 6.13894 9.44012
L_Toe0  0.505156 0.0339743 -6.1361
R_Thigh  46.7294 -11.3639 -17.521
R_Calf  62.4625 -17.8138 -83.7699
R_Foot  19.1293 28.7355 50.7185
R_Toe0  4.76995 -1.07745 -6.55936
502
root  -13.9332 11.8179 -10.0489 99.6206 61.8509 101.749
Spine  20.3482 14.0785 23.3484
Spine1  15.7224 -40.223 -3.24789
Neck  3.97569e-016 0 -2.38542e-015
Head  17.1641 5.5178 45.8611
R_Clavicle  0.698935 7.46935 3.19237
R_UpperArm  45.5053 20.7973 1.4531
R_Forearm  12.6176 0.792907 -0.68597
R_Hand  0.154582 9.74825 -11.1761
L_Clavicle  -0.527507 22.0068 1.86016
L_UpperArm  -29.0925 45.5601 73.7538
L_Forearm  -47.9307 -13.2165 -2.9352
L_Hand  48.2106 -55.0611 -84.4009
L_Thigh  27.0893 11.3688 20.1246
L_Calf  -5.06702 2.50229 -19.038
L_Foot  4.1284 4.87712 11.6523
L_Toe0  0.505156 0.0342406 -6.1361
R_Thigh  33.6083 -17.7485 -25.1627
R_Calf  56.035 -17.9168 -88.9107
R_Foot  24.7359 33.8733 52.2938
R_Toe0  10.0297 -1.60132 -10.4979
503
root  -12.4415 12.2644 -8.68452 112.658 61.6534 111.139
Spine  18.9277 17.8196 21.7513
Spine1  11.7045 -37.3937 0.602475
Neck  3.97569e-016 0 -2.38542e-015
Head  13.3955 6.79959 46.8997
R_Clavicle  0.600258 0.38983 3.08189
R_UpperArm  45.4661 9.66314 15.8114
R_Forearm  8.7049 15.915 -13.7303
R_Hand  -0.00118301 12.5698 -13.502
L_Clavicle  -0.577859 22.4583 1.1115
L_UpperArm  -30.3894 35.3157 74.789
L_Forearm  -28.2566 -2.69518 5.5627
L_Hand  -18.5268 -78.4653 21.3271
L_Thigh  32.6416 13.0516 19.5511
L_Calf  -4.07289 4.99245 -39.9697
L_Foot  4.2615 2.18262 16.1387
L_Toe0  0.505156 0.0344057 -6.1361
R_Thigh  17.502 -25.3788 -24.4952
R_Calf  36.1273 -17.9056 -87.5414
R_Foot  17.2156 27.8172 44.6463
R_Toe0  10.6765 -1.67409 -10.4472
504
root  -10.8846 12.9426 -7.7244 127.975 57.4588 121.845
Spine  14.9613 17.2568 16.3954
Spine1  7.67409 -31.4488 5.50444
Neck  3.97569e-016 0 -2.38542e-015
Head  7.95715 8.2697 45.8222
R_Clavicle  0.487313 -8.10896 2.66979
R_UpperArm  44.0891 -4.77461 33.3346
R_Forearm  4.41623 24.7005 -22.4924
R_Hand  -0.558111 14.197 -17.1075
L_Clavicle  -0.638282 23.7626 0.636606
L_UpperArm  -31.8851 24.7982 69.5683
L_Forearm  0.884034 11.7765 18.3528
L_Hand  -16.4106 -37.2951 54.8119
L_Thigh  32.8015 13.7811 16.2283
L_Calf  -3.41346 6.77961 -60.3525
L_Foot  4.77842 -0.133461 22.5313
L_Toe0  0.608648 0.0256257 -6.27026
R_Thigh  -3.51599 -29.9936 -8.51289
R_Calf  13.1745 -17.2219 -73.6803
R_Foot  6.74989 17.6148 27.9017
R_Toe0  4.6115 -0.68712 -13.6753
505
root  -9.17315 13.3062 -7.23347 140.994 49.5884 129.377
Spine  9.42366 11.1981 8.01269
Spine1  4.95317 -20.7768 10.2162
Neck  3.97569e-016 0 -2.38542e-015
Head  2.52852 7.3715 43.3235
R_Clavicle  0.467129 -15.9313 2.93313
R_UpperArm  42.3457 -16.5148 48.0757
R_Forearm  6.46323 21.7074 -19.3407
R_Hand  -1.34178 14.9195 -21.377
L_Clavicle  -0.658262 24.1243 0.490029
L_UpperArm  -30.9482 20.2183 69.834
L_Forearm  12.0739 11.0735 13.8164
L_Hand  -8.86843 -23.241 52.5624
L_Thigh  25.9838 13.6095 9.68148
L_Calf  -1.57381 7.62193 -77.2384
L_Foot  5.23494 -2.78941 30.5089
L_Toe0  -0.467393 0.119985 -5.17419
R_Thigh  -23.1976 -29.9079 4.11474
R_Calf  -7.99459 -13.8071 -49.6697
R_Foot  6.29309 18.6637 13.2124
R_Toe0  -2.38146 -0.230276 -17.6606
